# xmcd CD database file
#
# Track frame offsets:
#	150
#	17084
#	32488
#	49276
#	68843
#	84670
#	99956
#	118509
#	134429
#	153088
#	172472
#	200044
#	228956
#	242139
#	254699
#	272674
#	288980
#	310919
#
# Disc length: 4337 seconds
#
# Revision: 0
# Processed by: cddbd v1.5.2PL0 Copyright (c) Steve Scherf et al.
# Submitted via: CDex 1.70beta2
#
DISCID=0210ef12
DTITLE=Various Artist - Country Series 07
DYEAR=1900
DGENRE=Country
TTITLE0=Garth Brooks - The Dance
TTITLE1=LeAnne Rimes - The Light in Your Eyes
TTITLE2=Charlie Daniels Band - Drinkin' My Baby Goodbye
TTITLE3=Tim McGraw - Indian Outlaw
TTITLE4=Maverixks - Missing You
TTITLE5=Confederate Railroad - Wueen of Memphis
TTITLE6=Asleep at the Wheel - San Antonio Rose
TTITLE7=Reba McEntire - I'd Rather Ride Around with You
TTITLE8=Alan Jackson - Chattahoochee
TTITLE9=Tracy Byrd - Keeper of the Stars
TTITLE10=Brooks and Dunn - Boot Scootin Boogie (remix)
TTITLE11=Brooks and Dunn - Boot Scootin Boogie (remix)
TTITLE12=George Strait - Armarillo by Morning
TTITLE13=Clint Black - The Gulf of Mexico
TTITLE14=Toby Keith - We were in Love
TTITLE15=Biily Joe Royal - Boardwalk Angel
TTITLE16=Shania Twian - Who's Bed Have Yoiur Boots been Under
TTITLE17=Ty England - Kick Back
EXTD=
EXTT0=
EXTT1=
EXTT2=
EXTT3=
EXTT4=
EXTT5=
EXTT6=
EXTT7=
EXTT8=
EXTT9=
EXTT10=
EXTT11=
EXTT12=
EXTT13=
EXTT14=
EXTT15=
EXTT16=
EXTT17=
PLAYORDER=
